<svg width="52" height="52" viewBox="0 0 52 52" fill="none" xmlns="http://www.w3.org/2000/svg">
<rect width="52" height="52" rx="11" fill="url(#paint0_linear_5134_20402)"/>
<path fill-rule="evenodd" clip-rule="evenodd" d="M13.9494 15.6084C14.02 15.3961 14.172 15.2206 14.372 15.1204C14.572 15.0202 14.8036 15.0035 15.0159 15.074L15.314 15.1741L15.359 15.1888C16.0632 15.4239 16.6584 15.6219 17.1275 15.8401C17.6247 16.0719 18.0567 16.3576 18.3841 16.8133C18.7115 17.2666 18.8476 17.7673 18.9095 18.3129C18.968 18.8259 18.968 19.4536 18.968 20.1961V23.1875C18.968 24.8019 18.9702 25.9291 19.0839 26.7785C19.1952 27.6043 19.3989 28.0407 19.7094 28.3524C20.021 28.664 20.4586 28.8665 21.2844 28.9779C22.1337 29.0915 23.2599 29.0938 24.8742 29.0938H32.7492C32.86 29.0938 32.9698 29.1156 33.0721 29.158C33.1745 29.2004 33.2675 29.2625 33.3459 29.3409C33.4242 29.4192 33.4864 29.5122 33.5288 29.6146C33.5712 29.717 33.593 29.8267 33.593 29.9375C33.593 30.0483 33.5712 30.158 33.5288 30.2604C33.4864 30.3628 33.4242 30.4558 33.3459 30.5341C33.2675 30.6125 33.1745 30.6746 33.0721 30.717C32.9698 30.7594 32.86 30.7813 32.7492 30.7812H24.8124C23.2745 30.7812 22.0336 30.7812 21.0582 30.6496C20.0457 30.5146 19.193 30.2221 18.5157 29.546C17.8396 28.8688 17.5482 28.016 17.4121 27.0035C17.2805 26.0281 17.2805 24.7873 17.2805 23.2494V20.2434C17.2805 19.4413 17.2805 18.9103 17.2332 18.5041C17.1882 18.1194 17.1129 17.9338 17.015 17.7999C16.9182 17.6649 16.7664 17.5333 16.4154 17.3701C16.0441 17.198 15.5412 17.0281 14.7807 16.7739L14.4826 16.6749C14.2706 16.604 14.0953 16.4519 13.9953 16.252C13.8953 16.052 13.8788 15.8205 13.9494 15.6084Z" fill="#C8070B"/>
<path opacity="0.5" d="M18.9629 19.25C18.9674 19.5425 18.9693 19.8579 18.9685 20.1961V23.1875C18.9685 24.8019 18.9708 25.9291 19.0844 26.7785C19.1016 26.9023 19.1204 27.0177 19.1406 27.125H30.5256C31.6045 27.125 32.1434 27.125 32.5664 26.846C32.9894 26.567 33.202 26.072 33.6261 25.0798L34.1099 23.9548C35.02 21.8285 35.4745 20.7676 34.975 20.0082C34.4755 19.2489 33.319 19.25 31.006 19.25H18.9629Z" fill="white"/>
<path d="M20.9375 32.75C21.3851 32.75 21.8143 32.9278 22.1307 33.2443C22.4472 33.5607 22.625 33.9899 22.625 34.4375C22.625 34.8851 22.4472 35.3143 22.1307 35.6307C21.8143 35.9472 21.3851 36.125 20.9375 36.125C20.4899 36.125 20.0607 35.9472 19.7443 35.6307C19.4278 35.3143 19.25 34.8851 19.25 34.4375C19.25 33.9899 19.4278 33.5607 19.7443 33.2443C20.0607 32.9278 20.4899 32.75 20.9375 32.75ZM32.75 34.4375C32.75 33.9899 32.5722 33.5607 32.2557 33.2443C31.9393 32.9278 31.5101 32.75 31.0625 32.75C30.6149 32.75 30.1857 32.9278 29.8693 33.2443C29.5528 33.5607 29.375 33.9899 29.375 34.4375C29.375 34.8851 29.5528 35.3143 29.8693 35.6307C30.1857 35.9472 30.6149 36.125 31.0625 36.125C31.5101 36.125 31.9393 35.9472 32.2557 35.6307C32.5722 35.3143 32.75 34.8851 32.75 34.4375Z" fill="white"/>
<defs>
<linearGradient id="paint0_linear_5134_20402" x1="3.12" y1="3.12" x2="47.84" y2="49.66" gradientUnits="userSpaceOnUse">
<stop offset="0.211612" stop-color="#BE1622"/>
<stop offset="0.798175" stop-color="#520101"/>
</linearGradient>
</defs>
</svg>
