<svg width="52" height="52" viewBox="0 0 52 52" fill="none" xmlns="http://www.w3.org/2000/svg">
<rect width="52" height="52" rx="11" fill="url(#paint0_linear_5134_20452)"/>
<path opacity="0.5" d="M14.75 26C14.75 20.6967 14.75 18.0451 16.397 16.397C18.0462 14.75 20.6967 14.75 26 14.75C31.3032 14.75 33.9549 14.75 35.6019 16.397C37.25 18.0462 37.25 20.6967 37.25 26C37.25 31.3032 37.25 33.9549 35.6019 35.6019C33.956 37.25 31.3032 37.25 26 37.25C20.6967 37.25 18.0451 37.25 16.397 35.6019C14.75 33.956 14.75 31.3032 14.75 26Z" fill="#C8060B"/>
<path d="M37.2504 18.125C37.2504 19.0201 36.8949 19.8786 36.2619 20.5115C35.629 21.1444 34.7705 21.5 33.8754 21.5C32.9803 21.5 32.1219 21.1444 31.489 20.5115C30.856 19.8786 30.5004 19.0201 30.5004 18.125C30.5004 17.2299 30.856 16.3714 31.489 15.7385C32.1219 15.1056 32.9803 14.75 33.8754 14.75C34.7705 14.75 35.629 15.1056 36.2619 15.7385C36.8949 16.3714 37.2504 17.2299 37.2504 18.125ZM28.8129 24.5938C28.5892 24.5938 28.3746 24.5049 28.2163 24.3466C28.0581 24.1884 27.9692 23.9738 27.9692 23.75C27.9692 23.5262 28.0581 23.3116 28.2163 23.1534C28.3746 22.9951 28.5892 22.9062 28.8129 22.9062H31.6254C31.8492 22.9062 32.0638 22.9951 32.2221 23.1534C32.3803 23.3116 32.4692 23.5262 32.4692 23.75V26.5625C32.4692 26.7863 32.3803 27.0009 32.2221 27.1591C32.0638 27.3174 31.8492 27.4062 31.6254 27.4062C31.4017 27.4062 31.187 27.3174 31.0288 27.1591C30.8706 27.0009 30.7817 26.7863 30.7817 26.5625V25.7863L28.5171 28.0509C28.1479 28.4198 27.6473 28.627 27.1254 28.627C26.6035 28.627 26.103 28.4198 25.7338 28.0509L23.9496 26.2666C23.9234 26.2404 23.8924 26.2197 23.8582 26.2055C23.8241 26.1913 23.7874 26.184 23.7504 26.184C23.7134 26.184 23.6768 26.1913 23.6426 26.2055C23.6085 26.2197 23.5774 26.2404 23.5513 26.2666L20.9717 28.8462C20.8117 28.9953 20.6002 29.0764 20.3816 29.0726C20.163 29.0687 19.9545 28.9802 19.7999 28.8256C19.6453 28.671 19.5567 28.4624 19.5529 28.2438C19.549 28.0252 19.6301 27.8137 19.7792 27.6538L22.3588 25.0741C22.728 24.7052 23.2285 24.498 23.7504 24.498C24.2723 24.498 24.7729 24.7052 25.1421 25.0741L26.9263 26.8584C26.9524 26.8846 26.9835 26.9053 27.0176 26.9195C27.0518 26.9337 27.0884 26.941 27.1254 26.941C27.1624 26.941 27.1991 26.9337 27.2332 26.9195C27.2674 26.9053 27.2984 26.8846 27.3246 26.8584L29.5881 24.5938H28.8129Z" fill="white"/>
<defs>
<linearGradient id="paint0_linear_5134_20452" x1="3.12" y1="3.12" x2="47.84" y2="49.66" gradientUnits="userSpaceOnUse">
<stop offset="0.211612" stop-color="#BE1622"/>
<stop offset="0.798175" stop-color="#520101"/>
</linearGradient>
</defs>
</svg>
