<svg width="52" height="52" viewBox="0 0 52 52" fill="none" xmlns="http://www.w3.org/2000/svg">
<rect width="52" height="52" rx="11" fill="url(#paint0_linear_5134_20377)"/>
<path fill-rule="evenodd" clip-rule="evenodd" d="M29.0581 31.4713L36.3669 24.1838C37.4194 23.135 37.9456 22.61 38.2219 21.9438C38.4981 21.2775 38.4994 20.5338 38.4994 19.05V18.3413C38.4994 16.0588 38.4994 14.9175 37.7881 14.2087C37.0769 13.5 35.9331 13.5 33.6444 13.5H32.9319C31.4444 13.5 30.7006 13.5 30.0319 13.7762C29.3619 14.0525 28.8356 14.5775 27.7819 15.6263L20.4744 22.9137C19.2444 24.1388 18.4819 24.9 18.1869 25.6337C18.0955 25.8567 18.048 26.0953 18.0469 26.3363C18.0469 27.3387 18.8556 28.1463 20.4744 29.76L20.6919 29.9762L23.2394 27.39C23.3258 27.3023 23.4287 27.2324 23.5421 27.1844C23.6555 27.1364 23.7773 27.1113 23.9004 27.1103C24.0236 27.1094 24.1457 27.1327 24.2598 27.179C24.374 27.2253 24.4779 27.2936 24.5656 27.38C24.6534 27.4664 24.7232 27.5693 24.7712 27.6827C24.8192 27.7961 24.8444 27.9179 24.8453 28.0411C24.8462 28.1642 24.8229 28.2863 24.7766 28.4005C24.7303 28.5146 24.6621 28.6185 24.5756 28.7063L22.0194 31.3L22.1906 31.4713C23.8094 33.0838 24.6194 33.8913 25.6244 33.8913C25.8469 33.8913 26.0594 33.8525 26.2731 33.7738C27.0269 33.4963 27.7969 32.7288 29.0581 31.4713ZM32.4919 22.9137C32.036 23.368 31.4186 23.6231 30.775 23.6231C30.1314 23.6231 29.514 23.368 29.0581 22.9137C28.8325 22.6895 28.6534 22.4229 28.5312 22.1292C28.4091 21.8355 28.3461 21.5206 28.3461 21.2025C28.3461 20.8844 28.4091 20.5695 28.5312 20.2758C28.6534 19.9821 28.8325 19.7155 29.0581 19.4913C29.514 19.037 30.1314 18.7819 30.775 18.7819C31.4186 18.7819 32.036 19.037 32.4919 19.4913C32.7175 19.7155 32.8966 19.9821 33.0188 20.2758C33.1409 20.5695 33.2039 20.8844 33.2039 21.2025C33.2039 21.5206 33.1409 21.8355 33.0188 22.1292C32.8966 22.4229 32.7175 22.6895 32.4919 22.9137Z" fill="#C7060A"/>
<path opacity="0.5" d="M22.2922 18.4538L19.1135 21.6251C18.5297 22.2076 17.9935 22.7413 17.5697 23.2251C17.283 23.544 17.0241 23.8869 16.796 24.2501L16.766 24.2188L16.6472 24.1013C16.0935 23.5664 15.4438 23.1406 14.7322 22.8463L14.5785 22.7838L14.1047 22.5963C13.9572 22.5382 13.8265 22.4442 13.7243 22.3229C13.6222 22.2015 13.5519 22.0567 13.5198 21.9014C13.4877 21.7461 13.4947 21.5852 13.5403 21.4333C13.5859 21.2814 13.6686 21.1433 13.781 21.0313C15.181 19.6338 16.8622 17.9576 17.6747 17.6213C18.3804 17.3266 19.1525 17.2277 19.9097 17.3351C20.5922 17.4363 21.2372 17.7876 22.2922 18.4538ZM27.721 35.1413C27.9772 35.4013 28.146 35.5851 28.301 35.7813C28.5035 36.0405 28.6843 36.3147 28.8435 36.6038C29.021 36.9288 29.1597 37.2751 29.436 37.9688C29.4902 38.1 29.576 38.2158 29.6857 38.3059C29.7954 38.396 29.9256 38.4577 30.0648 38.4854C30.2041 38.5131 30.348 38.506 30.4838 38.4647C30.6196 38.4235 30.7432 38.3493 30.8435 38.2488L30.9485 38.1451C32.3485 36.7488 34.0297 35.0726 34.3672 34.2638C34.6637 33.5613 34.7627 32.7911 34.6535 32.0363C34.5522 31.3551 34.201 30.7113 33.5322 29.6588L30.3422 32.8388C29.7447 33.4351 29.1972 33.9813 28.701 34.4088C28.4047 34.6663 28.0797 34.9213 27.721 35.1413Z" fill="white"/>
<defs>
<linearGradient id="paint0_linear_5134_20377" x1="3.12" y1="3.12" x2="47.84" y2="49.66" gradientUnits="userSpaceOnUse">
<stop offset="0.211612" stop-color="#BE1622"/>
<stop offset="0.798175" stop-color="#520101"/>
</linearGradient>
</defs>
</svg>
