<svg width="52" height="52" viewBox="0 0 52 52" fill="none" xmlns="http://www.w3.org/2000/svg">
<rect width="52" height="52" rx="11" fill="url(#paint0_linear_5134_20427)"/>
<path fill-rule="evenodd" clip-rule="evenodd" d="M13.7279 16.7266C14.1733 13.7306 16.5653 11.3333 19.5986 11.3333C21.4159 11.3333 23.0213 12.2079 24.0973 13.5466C24.1805 13.6501 24.2425 13.7691 24.2796 13.8967C24.3167 14.0242 24.3283 14.1579 24.3137 14.2899C24.2991 14.422 24.2586 14.5498 24.1944 14.6662C24.1303 14.7825 24.0438 14.8851 23.9399 14.9679C23.7304 15.136 23.4627 15.2139 23.1956 15.1847C22.9286 15.1554 22.6841 15.0214 22.5159 14.8119C21.7826 13.8999 20.7373 13.3546 19.5986 13.3546C17.8079 13.3546 16.1946 14.7453 15.7813 16.7333C15.9652 16.756 16.1394 16.829 16.2846 16.9441C16.4299 17.0593 16.5406 17.2123 16.6046 17.3862C16.6687 17.5602 16.6836 17.7484 16.6477 17.9303C16.6118 18.1122 16.5266 18.2806 16.4013 18.4173L15.4146 19.4973C15.3197 19.6011 15.2041 19.6841 15.0753 19.7409C14.9465 19.7976 14.8073 19.827 14.6666 19.827C14.5259 19.827 14.3867 19.7976 14.2579 19.7409C14.1291 19.6841 14.0135 19.6011 13.9186 19.4973L12.9319 18.4173C12.7963 18.2696 12.7078 18.0849 12.6776 17.8868C12.6473 17.6886 12.6768 17.486 12.7622 17.3046C12.8476 17.1232 12.985 16.9714 13.157 16.8685C13.329 16.7655 13.5278 16.7161 13.7279 16.7266ZM24.8533 15.6466C24.994 15.6465 25.1332 15.6758 25.2619 15.7325C25.3907 15.7892 25.5063 15.8721 25.6013 15.9759L26.5879 17.0546C26.724 17.2022 26.8129 17.387 26.8434 17.5854C26.8739 17.7838 26.8446 17.9867 26.7591 18.1684C26.6737 18.35 26.536 18.502 26.3637 18.605C26.1914 18.708 25.9924 18.7573 25.7919 18.7466C25.3479 21.7413 22.9559 24.1386 19.9213 24.1386C18.2306 24.1386 16.7213 23.3813 15.6546 22.1973C15.5657 22.0987 15.4971 21.9836 15.4528 21.8586C15.4084 21.7335 15.3892 21.6009 15.3961 21.4684C15.403 21.3359 15.436 21.2061 15.4932 21.0863C15.5504 20.9666 15.6306 20.8593 15.7293 20.7706C15.8282 20.6814 15.9437 20.6126 16.0692 20.568C16.1947 20.5235 16.3277 20.5042 16.4607 20.5111C16.5937 20.518 16.7241 20.5511 16.8443 20.6084C16.9645 20.6658 17.0722 20.7463 17.1613 20.8453C17.8813 21.6453 18.8599 22.1173 19.9213 22.1173C21.7119 22.1173 23.3253 20.7279 23.7386 18.7386C23.5546 18.7158 23.3805 18.6429 23.2352 18.5277C23.09 18.4125 22.9793 18.2596 22.9152 18.0856C22.8512 17.9116 22.8363 17.7234 22.8721 17.5415C22.908 17.3597 22.9933 17.1912 23.1186 17.0546L24.1053 15.9759C24.2002 15.8721 24.3158 15.7892 24.4446 15.7325C24.5734 15.6758 24.7126 15.6465 24.8533 15.6466Z" fill="white"/>
<path fill-rule="evenodd" clip-rule="evenodd" d="M38.0001 25.8239V31.2159C38.0001 36.2999 38.0001 38.8426 36.4175 40.4212C34.8348 41.9999 32.2868 41.9999 27.1908 41.9999C22.0948 41.9999 19.5481 41.9999 17.9641 40.4212C16.3828 38.8412 16.3828 36.2999 16.3828 31.2159V28.9066C16.3828 28.5479 16.3828 28.3692 16.4161 28.2212C16.4729 27.9736 16.5985 27.747 16.7785 27.5677C16.9585 27.3884 17.1856 27.2636 17.4335 27.2079C17.5801 27.1732 17.7615 27.1732 18.1201 27.1732C20.2721 27.1732 21.3468 27.1732 22.2361 26.9719C23.7242 26.6352 25.0868 25.8848 26.1668 24.8072C27.2468 23.7295 28.0002 22.3686 28.3401 20.8812C28.5428 19.9946 28.5428 18.9226 28.5428 16.7786C28.5428 16.4239 28.5428 16.2452 28.5775 16.0959C28.6369 15.8455 28.7662 15.6171 28.9503 15.4373C29.1344 15.2574 29.3658 15.1335 29.6175 15.0799C29.7668 15.0479 29.9401 15.0519 30.2841 15.0586C33.3935 15.1212 35.1935 15.3986 36.4175 16.6186C38.0001 18.1999 38.0001 20.7412 38.0001 25.8252M23.1375 36.9452C22.9993 36.9365 22.8608 36.9563 22.7306 37.0031C22.6003 37.05 22.4811 37.1231 22.3802 37.2179C22.2793 37.3126 22.1988 37.4271 22.1439 37.5541C22.0889 37.6812 22.0605 37.8181 22.0605 37.9566C22.0605 38.095 22.0889 38.232 22.1439 38.359C22.1988 38.4861 22.2793 38.6005 22.3802 38.6953C22.4811 38.79 22.6003 38.8631 22.7306 38.91C22.8608 38.9569 22.9993 38.9766 23.1375 38.9679H31.2441C31.3812 38.975 31.5183 38.954 31.6471 38.9064C31.7758 38.8588 31.8935 38.7855 31.9931 38.691C32.0926 38.5964 32.1718 38.4826 32.226 38.3565C32.2802 38.2303 32.3081 38.0945 32.3081 37.9572C32.3081 37.82 32.2802 37.6841 32.226 37.558C32.1718 37.4319 32.0926 37.3181 31.9931 37.2235C31.8935 37.129 31.7758 37.0557 31.6471 37.0081C31.5183 36.9604 31.3812 36.9395 31.2441 36.9466L23.1375 36.9452Z" fill="#C8060B"/>
<defs>
<linearGradient id="paint0_linear_5134_20427" x1="3.12" y1="3.12" x2="47.84" y2="49.66" gradientUnits="userSpaceOnUse">
<stop offset="0.211612" stop-color="#BE1622"/>
<stop offset="0.798175" stop-color="#520101"/>
</linearGradient>
</defs>
</svg>
