<svg width="52" height="52" viewBox="0 0 52 52" fill="none" xmlns="http://www.w3.org/2000/svg">
<rect width="52" height="52" rx="11" fill="url(#paint0_linear_5825_3431)"/>
<path opacity="0.5" d="M14.1251 22.1505C14.1251 15.4403 19.4419 10 26.0001 10C32.5582 10 37.8751 15.4403 37.8751 22.1505C37.8804 23.8521 37.5314 25.5361 36.8502 27.0954C36.1689 28.6547 35.1704 30.055 33.9183 31.2072C33.1108 31.9466 32.5107 32.496 32.0864 32.895C31.8715 33.0969 31.6603 33.3028 31.4531 33.5125L31.4135 33.5553L31.4056 33.5647L31.4008 33.5695C31.0256 34.0445 30.9448 34.1648 30.8973 34.2757C30.8498 34.3865 30.8134 34.529 30.7184 35.1307C30.682 35.3682 30.6772 35.7735 30.6772 36.8802V36.9278C30.6772 37.5753 30.6772 38.1343 30.6376 38.5918C30.5949 39.0763 30.4999 39.5577 30.245 40.0089C29.9627 40.511 29.5531 40.9299 29.0575 41.2233C28.6173 41.4846 28.1471 41.5812 27.6736 41.6255C27.2256 41.6667 26.6793 41.6667 26.046 41.6667H25.9541C25.3208 41.6667 24.7746 41.6667 24.3265 41.6255C23.8515 41.5812 23.3828 41.483 22.9411 41.2233C22.446 40.9297 22.0369 40.5108 21.7551 40.0089C21.5018 39.5577 21.4068 39.0779 21.3625 38.5918C21.3213 38.1327 21.3213 37.5753 21.3213 36.9278V36.8802C21.3213 35.7735 21.3181 35.3682 21.2801 35.1307C21.1851 34.529 21.1519 34.3865 21.1028 34.2757C21.0553 34.1648 20.9746 34.0429 20.5993 33.5695L20.5946 33.5647L20.5866 33.5553L20.5471 33.5125L20.4077 33.37C20.2453 33.2093 20.0807 33.0509 19.9137 32.895C19.4894 32.496 18.8893 31.9466 18.0818 31.2056C16.8299 30.0536 15.8315 28.6535 15.1503 27.0945C14.4691 25.5356 14.1199 23.8518 14.1251 22.1505Z" fill="#FF0000"/>
<path d="M24.3897 28.4062C24.3123 28.2701 24.2088 28.1506 24.085 28.0547C23.9612 27.9587 23.8197 27.8882 23.6686 27.8471C23.5174 27.8061 23.3597 27.7954 23.2044 27.8156C23.0491 27.8358 22.8993 27.8865 22.7637 27.9648C22.628 28.0431 22.5092 28.1474 22.4141 28.2718C22.319 28.3962 22.2494 28.5382 22.2094 28.6896C22.1693 28.841 22.1597 28.9989 22.1809 29.154C22.2021 29.3092 22.2538 29.4586 22.333 29.5937C22.9009 30.5742 23.8273 31.2957 24.917 31.6062V33.75C24.917 34.0649 25.0421 34.367 25.2648 34.5897C25.4875 34.8124 25.7895 34.9375 26.1045 34.9375C26.4194 34.9375 26.7215 34.8124 26.9442 34.5897C27.1669 34.367 27.292 34.0649 27.292 33.75V31.6077C28.3816 31.2973 29.3081 30.5757 29.876 29.5953C30.0337 29.3226 30.0765 28.9984 29.9952 28.694C29.9138 28.3897 29.7149 28.1301 29.4422 27.9724C29.1694 27.8147 28.8452 27.7718 28.5408 27.8532C28.2365 27.9346 27.9769 28.1335 27.8192 28.4062C27.646 28.7079 27.3962 28.9584 27.0951 29.1327C26.794 29.3069 26.4523 29.3987 26.1045 29.3987C25.7566 29.3987 25.4149 29.3069 25.1139 29.1327C24.8128 28.9584 24.563 28.7079 24.3897 28.4062ZM23.7817 37.9854H28.8009C28.7979 38.1218 28.7905 38.258 28.7787 38.3939C28.7502 38.7248 28.6996 38.8452 28.6663 38.9053C28.5715 39.0719 28.4351 39.211 28.2705 39.3091C28.2119 39.3439 28.0947 39.3946 27.7702 39.4247C27.4313 39.4563 26.9848 39.4563 26.2913 39.4563C25.5994 39.4563 25.1513 39.4563 24.8125 39.4247C24.4895 39.3946 24.3707 39.3455 24.3122 39.3091C24.1475 39.211 24.0111 39.0719 23.9163 38.9053C23.8847 38.8452 23.834 38.7248 23.8055 38.3939C23.794 38.2574 23.7861 38.1223 23.7817 37.9854Z" fill="#EDEDED"/>
<defs>
<linearGradient id="paint0_linear_5825_3431" x1="3.12" y1="3.12" x2="47.84" y2="49.66" gradientUnits="userSpaceOnUse">
<stop offset="0.211612" stop-color="#BE1622"/>
<stop offset="0.798175" stop-color="#520101"/>
</linearGradient>
</defs>
</svg>
